<svg xmlns="http://www.w3.org/2000/svg" viewBox="0 0 64 64" role="img" aria-label="Legal gavel">
  <rect width="64" height="64" rx="14" fill="#0f172a"/>
  <path d="M38.9 13.6 50.4 25a4 4 0 0 1 0 5.7l-2.1 2.1a4 4 0 0 1-5.7 0L31.1 21.3a4 4 0 0 1 0-5.7l2.1-2.1a4 4 0 0 1 5.7.1Z" fill="#f8fafc"/>
  <path d="m27.9 24.6 11.5 11.5-4.6 4.6L23.3 29.2l4.6-4.6Z" fill="#e2e8f0"/>
  <path d="M18.9 31.2a3.3 3.3 0 0 1 4.7 0l9.2 9.2a3.3 3.3 0 0 1 0 4.7l-1.5 1.5a3.3 3.3 0 0 1-4.7 0l-9.2-9.2a3.3 3.3 0 0 1 0-4.7l1.5-1.5Z" fill="#f8fafc"/>
  <path d="M36.2 39.6 42 33.8l14.5 14.5a3 3 0 0 1 0 4.2l-.1.1a3 3 0 0 1-4.2 0L36.2 39.6Z" fill="#fbbf24"/>
  <path d="M9 51.5h30a3.5 3.5 0 0 1 0 7H9a3.5 3.5 0 0 1 0-7Z" fill="#fbbf24"/>
</svg>
